<svg width="388" height="196" viewBox="0 0 388 196" fill="none" xmlns="http://www.w3.org/2000/svg">
<path d="M140.891 17.5214C127.115 45.6369 110.208 71.5542 92.8655 97.5683C85.35 108.842 77.969 122.976 65.8489 130.078C60.7301 133.078 51.7202 137.379 45.566 135.288C35.2873 131.796 28.307 121.188 19.0666 115.739C3.58359 106.609 31.4589 91.0779 39.2633 87.3377C78.3571 68.6023 120.013 55.0255 161.934 44.2576" stroke="black" stroke-width="3" stroke-linecap="round"/>
<path d="M59.6011 100.131C65.4314 121.092 85.2183 87.3377 73.6746 87.5988C68.1799 87.7231 56.4254 100.524 62.5424 101.965" stroke="black" stroke-width="3" stroke-linecap="round"/>
<path d="M124.241 62.8323C101.773 108.503 78.2662 152.089 46.3563 191.796C42.3301 196.806 43.4377 193.191 44.8414 189.807C47.257 183.985 48.2896 177.809 50.5871 171.973C55.4061 159.733 63.0949 147.758 70.4076 136.904C74.5807 130.71 78.0566 121.3 83.766 116.322C89.6211 111.217 90.5289 122.55 91.4227 126.029C91.5269 126.435 91.1601 125.228 91.1101 124.813C90.5558 120.196 94.2836 116.45 97.8371 114.149C107.857 107.661 120.402 105.326 131.821 102.393C137.077 101.043 142.39 99.8152 147.372 97.6061C150.669 96.1443 166.31 82.5172 168.278 83.5165C179.128 89.025 194.369 71.776 200.561 65.1357C201.815 63.7905 223.868 37.0933 208.789 39.0976C201.871 40.017 195.804 45.4108 191.178 50.1066C177.216 64.2799 166.025 81.8648 155.875 98.8811C150.016 108.703 144.72 118.791 140.485 129.425C139.488 131.931 138.834 132.516 139.216 128.67C142.29 97.7354 173.484 79.942 198.738 69.2071C252.188 46.4864 309.301 33.101 364.621 15.933" stroke="black" stroke-width="3" stroke-linecap="round"/>
</svg>
